<?xml version="1.0" standalone="no"?>
<!DOCTYPE svg PUBLIC "-//W3C//DTD SVG 20010904//EN"
 "http://www.w3.org/TR/2001/REC-SVG-20010904/DTD/svg10.dtd">
<svg version="1.0" xmlns="http://www.w3.org/2000/svg"
 width="2rem" height="2rem" viewBox="0 0 5620.000000 5620.000000"
 preserveAspectRatio="xMidYMid meet">
<metadata>
Created by potrace 1.16, written by Peter Selinger 2001-2019
</metadata>
<g transform="translate(0.000000,5620.000000) scale(0.100000,-0.100000)"
fill="#e4524c" stroke="none">
<path d="M18770 54769 c-134 -15 -282 -49 -430 -98 -343 -115 -608 -278 -861
-530 -252 -253 -416 -518 -530 -861 -90 -273 -109 -417 -109 -850 l0 -310
13614 0 c12261 0 13628 -2 13762 -16 192 -20 398 -55 555 -94 166 -41 494
-150 653 -217 984 -414 1795 -1225 2209 -2209 67 -159 176 -487 217 -653 39
-157 74 -363 94 -555 14 -134 16 -1968 16 -18722 l0 -18574 485 0 c274 0 528
5 583 11 296 32 612 138 875 292 300 177 587 464 764 764 154 263 260 579 292
875 15 137 15 39679 0 39816 -32 296 -138 612 -292 875 -177 300 -464 587
-764 764 -263 154 -579 260 -875 292 -119 13 -30143 13 -30258 0z"/>
<path d="M13630 50409 c-134 -15 -282 -49 -430 -98 -343 -115 -608 -278 -861
-530 -252 -253 -416 -518 -530 -861 -89 -268 -109 -419 -109 -820 l0 -280
13554 0 c12207 0 13568 -2 13702 -16 192 -20 398 -55 555 -94 166 -41 494
-150 653 -217 984 -414 1795 -1225 2209 -2209 67 -159 176 -487 217 -653 39
-157 74 -363 94 -555 14 -134 16 -1971 16 -18752 l0 -18604 545 0 c316 0 587
4 643 11 296 32 612 138 875 292 300 177 587 464 764 764 154 263 260 579 292
875 15 137 15 39679 0 39816 -32 296 -138 612 -292 875 -177 300 -464 587
-764 764 -263 154 -579 260 -875 292 -119 13 -30143 13 -30258 0z"/>
<path d="M8500 45809 c-283 -32 -606 -142 -863 -292 -300 -177 -587 -464 -764
-764 -154 -263 -260 -579 -292 -875 -15 -137 -15 -39679 0 -39816 32 -296 138
-612 292 -875 177 -300 464 -587 764 -764 263 -154 579 -260 875 -292 137 -15
30109 -15 30246 0 296 32 612 138 875 292 300 177 587 464 764 764 154 263
260 579 292 875 15 137 15 39679 0 39816 -32 296 -138 612 -292 875 -177 300
-464 587 -764 764 -263 154 -579 260 -875 292 -119 13 -30143 13 -30258 0z
m15575 -9769 c861 -56 1608 -224 2365 -530 948 -384 1779 -935 2495 -1654 442
-444 808 -918 1137 -1471 554 -932 899 -1998 1003 -3095 72 -770 24 -1542
-146 -2305 -257 -1163 -784 -2239 -1541 -3148 -753 -905 -1701 -1616 -2773
-2079 -730 -316 -1485 -509 -2273 -583 -838 -77 -1666 -15 -2487 189 -345 86
-592 164 -910 289 -981 385 -1840 948 -2575 1686 -464 467 -826 940 -1175
1536 -297 507 -558 1127 -719 1705 -135 486 -208 902 -258 1460 -20 228 -17
937 5 1180 71 763 226 1428 491 2098 379 961 913 1784 1630 2511 1062 1078
2410 1799 3906 2090 281 54 557 91 845 111 83 5 170 12 195 13 111 8 649 6
785 -3z m-4902 -17631 c350 -196 724 -369 1105 -513 580 -218 1093 -355 1725
-461 479 -80 868 -114 1407 -122 893 -13 1648 75 2503 292 712 181 1428 465
2035 810 73 41 139 75 146 75 50 0 749 -271 1091 -423 561 -249 1058 -511
1580 -832 619 -381 1281 -881 1795 -1356 1001 -925 1749 -1902 2341 -3054 193
-376 363 -773 522 -1220 188 -528 359 -1219 436 -1765 27 -186 61 -493 61
-547 l0 -43 -12375 0 -12375 0 0 43 c0 54 34 361 61 547 77 546 248 1237 436
1765 159 447 329 844 522 1220 592 1152 1340 2129 2341 3054 514 475 1176 975
1795 1356 673 414 1296 727 2059 1032 219 88 591 226 624 232 1 1 75 -40 165
-90z"/>
</g>
</svg>
